<svg xmlns="http://www.w3.org/2000/svg" viewBox="0 0 512 512" width="512" height="512" role="img" aria-label="Runday">
<rect width="512" height="512" rx="0" fill="#161511"/>
<g transform="translate(-113.83 31.07) scale(0.5261)">
<circle cx="1015.0" cy="335.0" r="91.4" fill="#C24B2A"/>
<path d="M 1105.00 611.50 C 1098.83 612.00 1091.83 613.83 1082.00 609.50 C 1072.17 605.17 1056.33 591.33 1046.00 585.50 C 1035.67 579.67 1031.00 577.83 1020.00 574.50 C 1009.00 571.17 998.67 568.67 980.00 565.50 C 961.33 562.33 924.08 563.58 908.00 555.50 C 891.92 547.42 890.67 526.50 883.50 517.00 C 876.33 507.50 868.50 501.00 865.00 498.50 C 861.50 496.00 861.08 497.92 862.50 502.00 C 863.92 506.08 871.33 518.50 873.50 523.00 C 875.67 527.50 875.42 527.42 875.50 529.00 C 875.58 530.58 878.42 531.08 874.00 532.50 C 869.58 533.92 857.50 536.67 849.00 537.50 C 840.50 538.33 830.83 538.00 823.00 537.50 C 815.17 537.00 811.00 536.67 802.00 534.50 C 793.00 532.33 790.50 533.17 769.00 524.50 C 747.50 515.83 693.17 490.50 673.00 482.50 C 652.83 474.50 656.67 477.83 648.00 476.50 C 639.33 475.17 625.75 475.25 621.00 474.50 C 616.25 473.75 618.25 476.92 619.50 472.00 C 620.75 467.08 626.83 451.50 628.50 445.00 C 630.17 438.50 629.75 435.42 629.50 433.00 C 629.25 430.58 630.17 425.50 627.00 430.50 C 623.83 435.50 615.58 454.58 610.50 463.00 C 605.42 471.42 602.08 475.08 596.50 481.00 C 590.92 486.92 584.92 492.92 577.00 498.50 C 569.08 504.08 560.17 510.17 549.00 514.50 C 537.83 518.83 522.50 523.00 510.00 524.50 C 497.50 526.00 487.00 525.33 474.00 523.50 C 461.00 521.67 442.17 514.83 432.00 513.50 C 421.83 512.17 419.50 513.33 413.00 515.50 C 406.50 517.67 403.17 517.67 393.00 526.50 C 382.83 535.33 361.67 559.33 352.00 568.50 C 342.33 577.67 342.33 577.67 335.00 581.50 C 327.67 585.33 315.17 589.83 308.00 591.50 C 300.83 593.17 295.67 591.67 292.00 591.50 C 288.33 591.33 287.25 591.08 286.00 590.50 C 284.75 589.92 284.08 591.75 284.50 588.00 C 284.92 584.25 286.50 573.33 288.50 568.00 C 290.50 562.67 285.75 564.58 296.50 556.00 C 307.25 547.42 340.67 526.00 353.00 516.50 C 365.33 507.00 362.83 507.83 370.50 499.00 C 378.17 490.17 390.25 468.42 399.00 463.50 C 407.75 458.58 415.17 468.50 423.00 469.50 C 430.83 470.50 440.17 470.17 446.00 469.50 C 451.83 468.83 453.75 468.08 458.00 465.50 C 462.25 462.92 467.75 458.92 471.50 454.00 C 475.25 449.08 477.50 444.00 480.50 436.00 C 483.50 428.00 486.17 414.33 489.50 406.00 C 492.83 397.67 499.08 389.75 500.50 386.00 C 501.92 382.25 501.42 381.58 498.00 383.50 C 494.58 385.42 483.42 395.42 480.00 397.50 C 476.58 399.58 478.92 397.92 477.50 396.00 C 476.08 394.08 473.33 390.33 471.50 386.00 C 469.67 381.67 467.50 375.00 466.50 370.00 C 465.50 365.00 465.08 361.08 465.50 356.00 C 465.92 350.92 458.42 339.42 469.00 339.50 C 479.58 339.58 515.17 355.83 529.00 356.50 C 542.83 357.17 543.00 347.17 552.00 343.50 C 561.00 339.83 575.33 336.33 583.00 334.50 C 590.67 332.67 587.50 332.67 598.00 332.50 C 608.50 332.33 629.17 331.50 646.00 333.50 C 662.83 335.50 674.50 337.83 699.00 344.50 C 723.50 351.17 770.50 367.50 793.00 373.50 C 815.50 379.50 823.50 379.33 834.00 380.50 C 844.50 381.67 848.00 381.50 856.00 380.50 C 864.00 379.50 875.17 377.00 882.00 374.50 C 888.83 372.00 892.42 369.25 897.00 365.50 C 901.58 361.75 907.25 354.58 909.50 352.00 C 911.75 349.42 910.92 350.92 910.50 350.00 C 910.08 349.08 908.58 347.25 907.00 346.50 C 905.42 345.75 915.17 346.00 901.00 345.50 C 886.83 345.00 842.17 345.33 822.00 343.50 C 801.83 341.67 790.67 337.67 780.00 334.50 C 769.33 331.33 764.17 327.83 758.00 324.50 C 751.83 321.17 748.58 319.25 743.00 314.50 C 737.42 309.75 729.25 301.75 724.50 296.00 C 719.75 290.25 713.42 283.08 714.50 280.00 C 715.58 276.92 721.08 277.92 731.00 277.50 C 740.92 277.08 758.83 276.67 774.00 277.50 C 789.17 278.33 808.50 280.50 822.00 282.50 C 835.50 284.50 843.00 286.33 855.00 289.50 C 867.00 292.67 878.50 295.33 894.00 301.50 C 909.50 307.67 935.00 322.50 948.00 326.50 C 961.00 330.50 962.83 324.67 972.00 325.50 C 981.17 326.33 994.00 328.50 1003.00 331.50 C 1012.00 334.50 1017.75 337.25 1026.00 343.50 C 1034.25 349.75 1044.42 360.25 1052.50 369.00 C 1060.58 377.75 1071.17 389.50 1074.50 396.00 C 1077.83 402.50 1073.83 404.33 1072.50 408.00 C 1071.17 411.67 1068.75 414.92 1066.50 418.00 C 1064.25 421.08 1062.25 423.92 1059.00 426.50 C 1055.75 429.08 1056.17 431.83 1047.00 433.50 C 1037.83 435.17 1015.50 434.17 1004.00 436.50 C 992.50 438.83 984.25 443.92 978.00 447.50 C 971.75 451.08 969.92 453.58 966.50 458.00 C 963.08 462.42 959.17 467.50 957.50 474.00 C 955.83 480.50 955.50 490.83 956.50 497.00 C 957.50 503.17 960.58 507.08 963.50 511.00 C 966.42 514.92 957.58 513.42 974.00 520.50 C 990.42 527.58 1040.83 544.33 1062.00 553.50 C 1083.17 562.67 1092.42 569.75 1101.00 575.50 C 1109.58 581.25 1110.08 583.58 1113.50 588.00 C 1116.92 592.42 1120.58 598.92 1121.50 602.00 C 1122.42 605.08 1121.75 604.92 1119.00 606.50 C 1116.25 608.08 1111.17 611.00 1105.00 611.50 Z" fill="#F0E8DC"/>
</g></svg>