<svg xmlns="http://www.w3.org/2000/svg" viewBox="-25.6 -25.6 1575.3 371.2" width="1575" height="371" role="img" aria-label="Runday">
<g transform="translate(-247.47 -211.91) scale(0.8699)">
<circle cx="1015.0" cy="335.0" r="91.4" fill="#C24B2A"/>
<path d="M 1105.00 611.50 C 1098.83 612.00 1091.83 613.83 1082.00 609.50 C 1072.17 605.17 1056.33 591.33 1046.00 585.50 C 1035.67 579.67 1031.00 577.83 1020.00 574.50 C 1009.00 571.17 998.67 568.67 980.00 565.50 C 961.33 562.33 924.08 563.58 908.00 555.50 C 891.92 547.42 890.67 526.50 883.50 517.00 C 876.33 507.50 868.50 501.00 865.00 498.50 C 861.50 496.00 861.08 497.92 862.50 502.00 C 863.92 506.08 871.33 518.50 873.50 523.00 C 875.67 527.50 875.42 527.42 875.50 529.00 C 875.58 530.58 878.42 531.08 874.00 532.50 C 869.58 533.92 857.50 536.67 849.00 537.50 C 840.50 538.33 830.83 538.00 823.00 537.50 C 815.17 537.00 811.00 536.67 802.00 534.50 C 793.00 532.33 790.50 533.17 769.00 524.50 C 747.50 515.83 693.17 490.50 673.00 482.50 C 652.83 474.50 656.67 477.83 648.00 476.50 C 639.33 475.17 625.75 475.25 621.00 474.50 C 616.25 473.75 618.25 476.92 619.50 472.00 C 620.75 467.08 626.83 451.50 628.50 445.00 C 630.17 438.50 629.75 435.42 629.50 433.00 C 629.25 430.58 630.17 425.50 627.00 430.50 C 623.83 435.50 615.58 454.58 610.50 463.00 C 605.42 471.42 602.08 475.08 596.50 481.00 C 590.92 486.92 584.92 492.92 577.00 498.50 C 569.08 504.08 560.17 510.17 549.00 514.50 C 537.83 518.83 522.50 523.00 510.00 524.50 C 497.50 526.00 487.00 525.33 474.00 523.50 C 461.00 521.67 442.17 514.83 432.00 513.50 C 421.83 512.17 419.50 513.33 413.00 515.50 C 406.50 517.67 403.17 517.67 393.00 526.50 C 382.83 535.33 361.67 559.33 352.00 568.50 C 342.33 577.67 342.33 577.67 335.00 581.50 C 327.67 585.33 315.17 589.83 308.00 591.50 C 300.83 593.17 295.67 591.67 292.00 591.50 C 288.33 591.33 287.25 591.08 286.00 590.50 C 284.75 589.92 284.08 591.75 284.50 588.00 C 284.92 584.25 286.50 573.33 288.50 568.00 C 290.50 562.67 285.75 564.58 296.50 556.00 C 307.25 547.42 340.67 526.00 353.00 516.50 C 365.33 507.00 362.83 507.83 370.50 499.00 C 378.17 490.17 390.25 468.42 399.00 463.50 C 407.75 458.58 415.17 468.50 423.00 469.50 C 430.83 470.50 440.17 470.17 446.00 469.50 C 451.83 468.83 453.75 468.08 458.00 465.50 C 462.25 462.92 467.75 458.92 471.50 454.00 C 475.25 449.08 477.50 444.00 480.50 436.00 C 483.50 428.00 486.17 414.33 489.50 406.00 C 492.83 397.67 499.08 389.75 500.50 386.00 C 501.92 382.25 501.42 381.58 498.00 383.50 C 494.58 385.42 483.42 395.42 480.00 397.50 C 476.58 399.58 478.92 397.92 477.50 396.00 C 476.08 394.08 473.33 390.33 471.50 386.00 C 469.67 381.67 467.50 375.00 466.50 370.00 C 465.50 365.00 465.08 361.08 465.50 356.00 C 465.92 350.92 458.42 339.42 469.00 339.50 C 479.58 339.58 515.17 355.83 529.00 356.50 C 542.83 357.17 543.00 347.17 552.00 343.50 C 561.00 339.83 575.33 336.33 583.00 334.50 C 590.67 332.67 587.50 332.67 598.00 332.50 C 608.50 332.33 629.17 331.50 646.00 333.50 C 662.83 335.50 674.50 337.83 699.00 344.50 C 723.50 351.17 770.50 367.50 793.00 373.50 C 815.50 379.50 823.50 379.33 834.00 380.50 C 844.50 381.67 848.00 381.50 856.00 380.50 C 864.00 379.50 875.17 377.00 882.00 374.50 C 888.83 372.00 892.42 369.25 897.00 365.50 C 901.58 361.75 907.25 354.58 909.50 352.00 C 911.75 349.42 910.92 350.92 910.50 350.00 C 910.08 349.08 908.58 347.25 907.00 346.50 C 905.42 345.75 915.17 346.00 901.00 345.50 C 886.83 345.00 842.17 345.33 822.00 343.50 C 801.83 341.67 790.67 337.67 780.00 334.50 C 769.33 331.33 764.17 327.83 758.00 324.50 C 751.83 321.17 748.58 319.25 743.00 314.50 C 737.42 309.75 729.25 301.75 724.50 296.00 C 719.75 290.25 713.42 283.08 714.50 280.00 C 715.58 276.92 721.08 277.92 731.00 277.50 C 740.92 277.08 758.83 276.67 774.00 277.50 C 789.17 278.33 808.50 280.50 822.00 282.50 C 835.50 284.50 843.00 286.33 855.00 289.50 C 867.00 292.67 878.50 295.33 894.00 301.50 C 909.50 307.67 935.00 322.50 948.00 326.50 C 961.00 330.50 962.83 324.67 972.00 325.50 C 981.17 326.33 994.00 328.50 1003.00 331.50 C 1012.00 334.50 1017.75 337.25 1026.00 343.50 C 1034.25 349.75 1044.42 360.25 1052.50 369.00 C 1060.58 377.75 1071.17 389.50 1074.50 396.00 C 1077.83 402.50 1073.83 404.33 1072.50 408.00 C 1071.17 411.67 1068.75 414.92 1066.50 418.00 C 1064.25 421.08 1062.25 423.92 1059.00 426.50 C 1055.75 429.08 1056.17 431.83 1047.00 433.50 C 1037.83 435.17 1015.50 434.17 1004.00 436.50 C 992.50 438.83 984.25 443.92 978.00 447.50 C 971.75 451.08 969.92 453.58 966.50 458.00 C 963.08 462.42 959.17 467.50 957.50 474.00 C 955.83 480.50 955.50 490.83 956.50 497.00 C 957.50 503.17 960.58 507.08 963.50 511.00 C 966.42 514.92 957.58 513.42 974.00 520.50 C 990.42 527.58 1040.83 544.33 1062.00 553.50 C 1083.17 562.67 1092.42 569.75 1101.00 575.50 C 1109.58 581.25 1110.08 583.58 1113.50 588.00 C 1116.92 592.42 1120.58 598.92 1121.50 602.00 C 1122.42 605.08 1121.75 604.92 1119.00 606.50 C 1116.25 608.08 1111.17 611.00 1105.00 611.50 Z" fill="#161511"/></g>
<g transform="translate(742.90 218.67) scale(0.2347)">
<path d="M73.1497802734375 0.0V-494.2501220703125H185.6005859375V-437.37518310546875H202.5506591796875Q214.07562255859375 -467.900146484375 239.92559814453125 -482.07513427734375Q265.77557373046875 -496.2501220703125 302.400390625 -496.2501220703125H361.87542724609375V-394.0494384765625H299.52545166015625Q250.300537109375 -394.0494384765625 218.9505615234375 -367.5870056152344Q187.6005859375 -341.12457275390625 187.6005859375 -285.8497314453125V0.0Z M642.7998046875 8.3499755859375Q585.8497314453125 8.3499755859375 542.1747436523438 -17.362579345703125Q498.499755859375 -43.07513427734375 474.0622863769531 -89.63766479492188Q449.62481689453125 -136.2001953125 449.62481689453125 -198.2501220703125V-494.2501220703125H564.0756225585938V-207.2001953125Q564.0756225585938 -147.17547607421875 593.7629699707031 -117.86306762695312Q623.4503173828125 -88.5506591796875 677.2501220703125 -88.5506591796875Q738.2249145507812 -88.5506591796875 773.3746948242188 -128.97552490234375Q808.5244750976562 -169.400390625 808.5244750976562 -243.82501220703125V-494.2501220703125H922.9752807617188V0.0H810.5244750976562V-69.37469482421875H793.5744018554688Q780.5244750976562 -41.92486572265625 746.1245727539062 -16.787445068359375Q711.7246704101562 8.3499755859375 642.7998046875 8.3499755859375Z M1059.1497802734375 0.0V-494.2501220703125H1171.6005859375V-424.87542724609375H1188.5506591796875Q1201.6005859375 -453.1502685546875 1236.00048828125 -477.87518310546875Q1270.400390625 -502.60009765625 1339.3252563476562 -502.60009765625Q1396.4503173828125 -502.60009765625 1440.0378112792969 -476.8875427246094Q1483.6253051757812 -451.17498779296875 1508.0627746582031 -405.02496337890625Q1532.500244140625 -358.87493896484375 1532.500244140625 -296.0V0.0H1418.0494384765625V-287.0499267578125Q1418.0494384765625 -347.2496337890625 1388.3620910644531 -376.47454833984375Q1358.6747436523438 -405.699462890625 1304.8749389648438 -405.699462890625Q1243.900146484375 -405.699462890625 1208.7503662109375 -365.27459716796875Q1173.6005859375 -324.8497314453125 1173.6005859375 -250.42510986328125V0.0Z M1865.899658203125 14.0Q1805.8497314453125 14.0 1754.0872497558594 -15.67498779296875Q1702.3247680664062 -45.3499755859375 1671.2372741699219 -102.26248168945312Q1640.1497802734375 -159.17498779296875 1640.1497802734375 -239.47503662109375V-254.77508544921875Q1640.1497802734375 -335.07513427734375 1671.1497802734375 -391.9876403808594Q1702.1497802734375 -448.900146484375 1753.5872497558594 -478.57513427734375Q1805.0247192382812 -508.2501220703125 1865.899658203125 -508.2501220703125Q1912.4745483398438 -508.2501220703125 1944.1119689941406 -497.0501708984375Q1975.7493896484375 -485.8502197265625 1995.5368347167969 -468.7127990722656Q2015.3242797851562 -451.57537841796875 2025.8492431640625 -432.3504638671875H2042.79931640625V-700.0H2157.2501220703125V0.0H2044.79931640625V-65.07464599609375H2027.8492431640625Q2010.1492919921875 -34.97479248046875 1973.0744018554688 -10.487396240234375Q1935.99951171875 14.0 1865.899658203125 14.0ZM1899.699951171875 -86.20068359375Q1962.0746459960938 -86.20068359375 2003.2619934082031 -126.41299438476562Q2044.4493408203125 -166.62530517578125 2044.4493408203125 -242.300048828125V-251.9500732421875Q2044.4493408203125 -327.62481689453125 2003.6744995117188 -367.8371276855469Q1962.899658203125 -408.0494384765625 1899.699951171875 -408.0494384765625Q1837.500244140625 -408.0494384765625 1796.2254028320312 -367.8371276855469Q1754.9505615234375 -327.62481689453125 1754.9505615234375 -251.9500732421875V-242.300048828125Q1754.9505615234375 -166.62530517578125 1796.2254028320312 -126.41299438476562Q1837.500244140625 -86.20068359375 1899.699951171875 -86.20068359375Z M2446.2748413085938 14.0Q2393.6248168945312 14.0 2351.7123107910156 -4.32501220703125Q2309.7998046875 -22.6500244140625 2285.3872985839844 -57.887542724609375Q2260.9747924804688 -93.12506103515625 2260.9747924804688 -143.60009765625Q2260.9747924804688 -194.2501220703125 2285.3872985839844 -228.31265258789062Q2309.7998046875 -262.37518310546875 2352.862335205078 -279.6127014160156Q2395.9248657226562 -296.8502197265625 2450.8749389648438 -296.8502197265625H2594.2244262695312V-326.77508544921875Q2594.2244262695312 -365.97479248046875 2570.1245727539062 -390.3121643066406Q2546.0247192382812 -414.6495361328125 2495.0499267578125 -414.6495361328125Q2445.0751342773438 -414.6495361328125 2419.537811279297 -391.399658203125Q2394.00048828125 -368.1497802734375 2385.9505615234375 -330.82501220703125L2280.099853515625 -365.97528076171875Q2292.099853515625 -404.8502197265625 2318.5123596191406 -436.87518310546875Q2344.9248657226562 -468.900146484375 2389.162384033203 -488.57513427734375Q2433.39990234375 -508.2501220703125 2496.699951171875 -508.2501220703125Q2593.6500244140625 -508.2501220703125 2649.5126037597656 -459.42510986328125Q2705.3751831054688 -410.60009765625 2705.3751831054688 -318.82501220703125V-124.900634765625Q2705.3751831054688 -94.900634765625 2733.3751831054688 -94.900634765625H2774.60009765625V0.0H2694.099853515625Q2658.1497802734375 0.0 2635.19970703125 -18.087493896484375Q2612.2496337890625 -36.17498779296875 2612.2496337890625 -66.52496337890625V-68.57489013671875H2594.8245239257812Q2589.2496337890625 -54.82501220703125 2574.1122131347656 -35.062530517578125Q2558.9747924804688 -15.300048828125 2528.4498291015625 -0.6500244140625Q2497.9248657226562 14.0 2446.2748413085938 14.0ZM2465.1250610351562 -79.6005859375Q2522.3247680664062 -79.6005859375 2558.2745971679688 -112.07537841796875Q2594.2244262695312 -144.5501708984375 2594.2244262695312 -199.8497314453125V-210.19970703125H2458.4750366210938Q2420.500244140625 -210.19970703125 2397.962921142578 -193.88729858398438Q2375.4255981445312 -177.57489013671875 2375.4255981445312 -147.07513427734375Q2375.4255981445312 -116.57537841796875 2398.962921142578 -98.08798217773438Q2422.500244140625 -79.6005859375 2465.1250610351562 -79.6005859375Z M2915.3746948242188 200.0V99.79931640625H3187.8245239257812Q3216.1744995117188 99.79931640625 3216.1744995117188 69.79931640625V-68.32476806640625H3199.2244262695312Q3190.5244750976562 -50.099853515625 3172.737030029297 -32.312408447265625Q3154.9495849609375 -14.52496337890625 3124.9871520996094 -3.087493896484375Q3095.0247192382812 8.3499755859375 3048.7998046875 8.3499755859375Q2991.8497314453125 8.3499755859375 2948.1747436523438 -17.362579345703125Q2904.499755859375 -43.07513427734375 2880.062286376953 -89.5501708984375Q2855.6248168945312 -136.02520751953125 2855.6248168945312 -198.07513427734375V-494.2501220703125H2970.0756225585938V-207.02520751953125Q2970.0756225585938 -147.00048828125 2999.762969970703 -117.77557373046875Q3029.4503173828125 -88.5506591796875 3083.2501220703125 -88.5506591796875Q3144.2249145507812 -88.5506591796875 3179.3746948242188 -128.88803100585938Q3214.5244750976562 -169.22540283203125 3214.5244750976562 -243.6500244140625V-494.2501220703125H3328.9752807617188V94.299560546875Q3328.9752807617188 142.67474365234375 3300.8126525878906 171.33737182617188Q3272.6500244140625 200.0 3224.5748901367188 200.0Z" fill="#161511"/></g>
</svg>